                              $$TheAaax9$$
Present by TheAaax9

sample of movie :- wwwdotyoutubedotcom/watch?v=GIXL8YrUFTY 

note :- dot = .

screenshots:- 
http://leetleech.org/images/47109912798992551934.png 
http://leetleech.org/images/24290479465385601779.png 
http://leetleech.org/images/96809920239691044167.png 
http://leetleech.org/images/92841595691631539280.png 
http://leetleech.org/images/62378251953515134313.png 
http://leetleech.org/images/58868607105917972452.png 
http://leetleech.org/images/97086006997552826432.png 
http://leetleech.org/images/66122420579726479431.png

General
Complete name                    : The Chronicles of Narnia - The Voyage of the 
                                   Dawn Treader [Dual Audio][Hin-Eng]_TheAaax9
IMDB                             : http://www.imdb.com/title/tt0980970/
File size                        : 1.60 GiB
Duration                         : 1h 45mn
Overall bit rate                 : 2 179 Kbps

Video
Format                           : MPEG-4 Visual
Codec ID                         : XVID
Codec ID/Hint                    : XviD
Duration                         : 1h 45mn
Bit rate                         : 1 687 Kbps
Width                            : 700 pixels
Height                           : 320 pixels
Display aspect ratio             : 2.2:1
Frame rate                       : 25.000 fps
Resolution                       : 24 bits
Colorimetry                      : 4:2:0
Scan type                        : Progressive
Bits/(Pixel*Frame)               : 0.301
Stream size                      : 1.24 GiB (77%)

Audio #1
Format                           : MPEG Audio
Format version                   : Version 1
Format profile                   : Layer 3
Codec ID                         : A_MPEG/L3
Codec ID/Hint                    : MP3
Duration                         : 1h 45mn
Bit rate mode                    : Constant
Bit rate                         : 320 Kbps
Sampling rate                    : 44.1 KHz
Resolution                       : 16 bits
Stream size                      : 241 MiB (15%)
Language                         : Hindi

Audio #2
Format                           : MPEG Audio
Format version                   : Version 1
Format profile                   : Layer 3
Codec ID                         : A_MPEG/L3
Codec ID/Hint                    : MP3
Duration                         : 1h 45mn
Bit rate mode                    : Constant
Bit rate                         : 128 Kbps
Sampling rate                    : 44.1 KHz
Resolution                       : 16 bits
Stream size                      : 96.4 MiB (6%)
Language                         : English

                            $$TheAaax9$$
